<svg xmlns="http://www.w3.org/2000/svg" version="1.1" xmlns:xlink="http://www.w3.org/1999/xlink" xmlns:svgjs="http://svgjs.dev/svgjs" width="1000" height="1000" viewBox="0 0 1000 1000"><rect width="1000" height="1000" fill="#000000"></rect><g transform="matrix(0.7,0,0,0.7,149.57575757575756,426.61132437789615)"><svg viewBox="0 0 396 83" data-background-color="#ffffff" preserveAspectRatio="xMidYMid meet" height="209" width="1000" xmlns="http://www.w3.org/2000/svg" xmlns:xlink="http://www.w3.org/1999/xlink"><g id="tight-bounds" transform="matrix(1,0,0,1,0.2400000000000091,0.13540722238292346)"><svg viewBox="0 0 395.52 82.72918555523418" height="82.72918555523418" width="395.52"><g><svg viewBox="0 0 484.62745782176637 101.36740211189911" height="82.72918555523418" width="395.52"><g transform="matrix(1,0,0,1,89.10745782176642,14.009532419227739)"><svg viewBox="0 0 395.5199999999999 73.34833727344363" height="73.34833727344363" width="395.5199999999999"><g><svg viewBox="0 0 395.5199999999999 73.34833727344363" height="73.34833727344363" width="395.5199999999999"><g><svg viewBox="0 0 395.5199999999999 73.34833727344363" height="73.34833727344363" width="395.5199999999999"><g transform="matrix(1,0,0,1,0,0)"><svg width="395.5199999999999" viewBox="5.25 -35 190.34 35.3" height="73.34833727344363" data-palette-color="#8dbdff"><path d="M5.25 0L5.25-35 10.25-35 10.25-4.35 29.2-4.35 29.2 0 5.25 0ZM45.85-3.9Q50.6-3.9 53.5-7.1L53.5-7.1 56.1-4Q54.35-1.9 51.67-0.8 49 0.3 45.7 0.3L45.7 0.3Q41.5 0.3 38.25-1.43 35-3.15 33.22-6.25 31.45-9.35 31.45-13.25L31.45-13.25Q31.45-17.1 33.17-20.2 34.9-23.3 37.92-25.03 40.95-26.75 44.75-26.75L44.75-26.75Q48.35-26.75 51.3-25.13 54.25-23.5 56-20.55 57.75-17.6 57.8-13.75L57.8-13.75 36.75-9.65Q37.75-6.9 40.12-5.4 42.5-3.9 45.85-3.9L45.85-3.9ZM44.75-22.7Q42.25-22.7 40.27-21.55 38.3-20.4 37.2-18.32 36.1-16.25 36.1-13.5L36.1-13.5 36.1-13 53.05-16.2Q52.4-19.1 50.15-20.9 47.9-22.7 44.75-22.7L44.75-22.7ZM78.65-26.75Q83.7-26.75 86.67-23.83 89.65-20.9 89.65-15.25L89.65-15.25 89.65 0 84.85 0 84.85-14.7Q84.85-18.55 83-20.5 81.15-22.45 77.7-22.45L77.7-22.45Q73.8-22.45 71.55-20.18 69.3-17.9 69.3-13.65L69.3-13.65 69.3 0 64.5 0 64.5-26.5 69.1-26.5 69.1-22.5Q70.55-24.55 73.02-25.65 75.5-26.75 78.65-26.75L78.65-26.75ZM99.24 0L99.24-35 113.99-35Q119.54-35 123.84-32.8 128.14-30.6 130.52-26.63 132.89-22.65 132.89-17.5L132.89-17.5Q132.89-12.35 130.52-8.38 128.14-4.4 123.84-2.2 119.54 0 113.99 0L113.99 0 99.24 0ZM104.24-4.35L113.69-4.35Q117.94-4.35 121.17-6 124.39-7.65 126.14-10.63 127.89-13.6 127.89-17.5L127.89-17.5Q127.89-21.4 126.14-24.38 124.39-27.35 121.17-29 117.94-30.65 113.69-30.65L113.69-30.65 104.24-30.65 104.24-4.35ZM151.79-3.9Q156.54-3.9 159.44-7.1L159.44-7.1 162.04-4Q160.29-1.9 157.62-0.8 154.94 0.3 151.64 0.3L151.64 0.3Q147.44 0.3 144.19-1.43 140.94-3.15 139.17-6.25 137.39-9.35 137.39-13.25L137.39-13.25Q137.39-17.1 139.12-20.2 140.84-23.3 143.87-25.03 146.89-26.75 150.69-26.75L150.69-26.75Q154.29-26.75 157.24-25.13 160.19-23.5 161.94-20.55 163.69-17.6 163.74-13.75L163.74-13.75 142.69-9.65Q143.69-6.9 146.07-5.4 148.44-3.9 151.79-3.9L151.79-3.9ZM150.69-22.7Q148.19-22.7 146.22-21.55 144.24-20.4 143.14-18.32 142.04-16.25 142.04-13.5L142.04-13.5 142.04-13 158.99-16.2Q158.34-19.1 156.09-20.9 153.84-22.7 150.69-22.7L150.69-22.7ZM184.59-26.75Q189.64-26.75 192.61-23.83 195.59-20.9 195.59-15.25L195.59-15.25 195.59 0 190.79 0 190.79-14.7Q190.79-18.55 188.94-20.5 187.09-22.45 183.64-22.45L183.64-22.45Q179.74-22.45 177.49-20.18 175.24-17.9 175.24-13.65L175.24-13.65 175.24 0 170.44 0 170.44-26.5 175.04-26.5 175.04-22.5Q176.49-24.55 178.96-25.65 181.44-26.75 184.59-26.75L184.59-26.75Z" opacity="1" transform="matrix(1,0,0,1,0,0)" fill="#ffffff" class="undefined-text-0" data-fill-palette-color="primary" id="text-0"></path></svg></g></svg></g></svg></g></svg></g><g><svg viewBox="0 0 71.79167575160093 101.36740211189911" height="101.36740211189911" width="71.79167575160093"><g><svg xmlns="http://www.w3.org/2000/svg" xmlns:xlink="http://www.w3.org/1999/xlink" version="1.0" x="0" y="0" viewBox="2.931 4.016 94.70200000000001 133.716" enable-background="new 0 0 100 141" xml:space="preserve" height="101.36740211189911" width="71.79167575160093" class="icon-icon-0" data-fill-palette-color="accent" id="icon-0"><g fill="#8dbdff" data-fill-palette-color="accent"><path d="M11.605 4.016h86.028v0.179c-5.068 7.823-7.93 12.001-8.585 12.539H66.065c3.159 3.703 5.306 8.21 6.438 13.524h24.503c0.297 0.06 0.446 0.179 0.446 0.358-5.485 8.24-8.287 12.359-8.405 12.359H73.13c-0.357 4.24-2.385 9.346-6.081 15.315-4.889 6.031-9.568 9.941-14.04 11.733-8.347 4.001-16.335 6-23.966 6v0.179c0 0.598 17.259 21.108 51.777 61.53H58.017C24.393 98.505 7.581 78.801 7.581 78.622V66.71l0.179-0.448c2.98 0.418 6.468 0.627 10.463 0.627 18.838 0 30.553-6.12 35.145-18.36 0.715-1.792 1.072-3.642 1.072-5.553H3.289c-0.239 0-0.358-0.119-0.358-0.358 5.663-8.24 8.554-12.36 8.674-12.36h40.599v-0.179c-2.325-4.716-6.827-8.388-13.503-11.016-4.771-1.552-9.063-2.329-12.877-2.329H3.11v-0.448C8.594 8.106 11.426 4.016 11.605 4.016z" fill="#ffffff" data-fill-palette-color="accent"></path></g></svg></g></svg></g></svg></g><defs></defs></svg><rect width="395.52" height="82.72918555523418" fill="none" stroke="none" visibility="hidden"></rect></g></svg></g></svg>